<?xml version="1.0" standalone="no"?>
<!DOCTYPE svg PUBLIC "-//W3C//DTD SVG 20010904//EN"
 "http://www.w3.org/TR/2001/REC-SVG-20010904/DTD/svg10.dtd">
<svg version="1.0" xmlns="http://www.w3.org/2000/svg"
 width="491.000000pt" height="491.000000pt" viewBox="0 0 491.000000 491.000000"
 preserveAspectRatio="xMidYMid meet">
<metadata>
Created by potrace 1.11, written by Peter Selinger 2001-2013
</metadata>
<g transform="translate(0.000000,491.000000) scale(0.100000,-0.100000)"
fill="#000000" stroke="none">
<path d="M2355 4856 c-22 -7 -188 -106 -370 -220 -181 -115 -397 -251 -480
-303 -82 -52 -184 -117 -225 -144 -41 -27 -82 -52 -90 -56 -8 -4 -46 -27 -85
-52 -38 -25 -78 -50 -88 -56 -9 -5 -141 -88 -292 -183 -296 -187 -324 -210
-378 -322 l-32 -65 -1 -1140 c-1 -1233 -3 -1189 53 -1249 54 -59 61 -60 493
-62 217 -1 398 -2 401 -3 3 -1 5 -211 5 -467 -1 -256 2 -467 5 -469 7 -5 18 2
654 405 138 87 277 176 310 196 33 21 166 105 295 187 l235 150 840 1 840 2
42 22 c24 13 55 41 70 64 l28 42 3 1145 c3 1279 7 1197 -67 1306 -55 80 38 17
-918 621 -244 153 -454 286 -468 294 -14 8 -141 88 -284 178 -143 90 -281 170
-307 178 -57 17 -135 17 -189 0z"/>
</g>
</svg>
